<svg xmlns="http://www.w3.org/2000/svg" width="1000" height="1000" viewBox="-2000 -2000 4000 4000"><g fill="#DDD"><rect width="4000" height="4000" x="-2000" y="-2000"/></g><g stroke="#000" stroke-width="8"><line x1="-2000" x2="2000" y1="0" y2="0"/><polygon points="2000 0 1950 50 1950 -50"/><line x1="0" x2="0" y1="-2000" y2="2000"/><polygon points="0 -2000 50 -1950 -50 -1950"/><circle cx="0" cy="0" r="30"/></g><g font-size="6.0rem" font-weight="bold" text-anchor="start"><text x="75" y="-75">(X=0.0, Y=0.0)</text><text x="1900" y="-75">X</text><text x="75" y="-1900">Y</text></g><g fill="#AFA" stroke="#000" stroke-width="10"><rect width="1600" height="900" x="-800" y="-450" fill="#BBB"/><rect width="900" height="900" x="-450" y="-450" fill="#BBB"/><rect width="400" height="225" x="400" y="-450"/><circle cx="400" cy="-225" r="30"/><circle cx="800" cy="-450" r="30"/><line x1="400" x2="800" y1="-337" y2="-337" stroke-width="10"/><polygon fill="#000" stroke-width="0" points="400 -337 450 -357 450 -317"/><polygon fill="#000" stroke-width="0" points="800 -337 750 -357 750 -317"/><line x1="600" x2="600" y1="-225" y2="-450" stroke-width="10"/><polygon fill="#000" stroke-width="0" points="600 -450 580 -400 620 -400"/><polygon fill="#000" stroke-width="0" points="600 -225 580 -275 620 -275"/></g><g dominant-baseline="hanging" font-size="6.0rem" font-weight="bold"><text x="400" y="-180" text-anchor="end">min = (4.0, 2.25)</text><text x="825" y="-600" text-anchor="left">max = (8.0, 4.5)</text></g><g dominant-baseline="auto" font-size="4.0rem" font-weight="bold" text-anchor="middle"><text x="600" y="-480">(Width=4.0)</text></g><g dominant-baseline="middle" font-size="4.0rem" font-weight="bold" text-anchor="left"><text x="820" y="-337">(Height=2.25)</text></g></svg>